<svg height="820" viewBox="0 0 820 820" width="820" xmlns="http://www.w3.org/2000/svg"><g fill="none" fill-rule="evenodd"><path d="m510.774 264-106.89 79.88-106.884-79.88v292.89h213.774z" fill="#9d7760"/><path d="m475.473 429.148h77.27c-3.34 22.619-21.283 36.274-41.718 36.274-21.002 0-33.86-11.151-35.552-36.274zm-112.23 0h76.355c-1.697 25.123-14.556 36.274-35.566 36.274-20.435 0-37.444-13.655-40.79-36.274zm-31.781-22.87a93.524 93.524 0 0 0 -.22 6.143v2.232c0 45.199 31.077 75.323 72.79 75.323 20.865 0 40.712-9.698 53.497-31.698 14.215 22 32.639 31.698 53.496 31.698 41.712 0 72.789-30.124 72.789-75.323v-2.232c0-2.13-.086-4.035-.221-6.085z" fill="#020302"/></g></svg>