<svg width="32" height="32" viewBox="0 0 32 32" fill="none" xmlns="http://www.w3.org/2000/svg"><rect width="32" height="32" rx="16" fill="#3FA0F9"/><path d="M6.27186 15.9773C8.11332 14.9567 10.1689 14.1049 12.0895 13.2487C15.3937 11.8464 18.711 10.4683 22.0618 9.18541C22.7137 8.96683 23.8851 8.75309 24 9.72519C23.9371 11.1012 23.6783 12.4692 23.5009 13.8372C23.0505 16.8456 22.5298 19.8436 22.0221 22.842C21.8472 23.8408 20.6038 24.3578 19.8081 23.7187C17.8961 22.4192 15.9693 21.1322 14.0816 19.8025C13.4633 19.1703 14.0367 18.2624 14.5889 17.811C16.1638 16.2493 17.8339 14.9225 19.3264 13.2802C19.7291 12.302 18.5395 13.1264 18.1471 13.379C15.9911 14.874 13.8879 16.4602 11.6148 17.774C10.4538 18.4171 9.10049 17.8675 7.93994 17.5087C6.89937 17.0752 5.37453 16.6384 6.27176 15.9774L6.27186 15.9773Z" fill="white"/></svg>